<?xml version="1.0" encoding="UTF-8" standalone="no"?>
<svg
   id="图层_1"
   data-name="图层 1"
   width="820"
   height="140"
   version="1.1"
   sodipodi:docname="truenas_scale_logo_full.svg"
   inkscape:version="1.2 (dc2aedaf03, 2022-05-15)"
   xmlns:inkscape="http://www.inkscape.org/namespaces/inkscape"
   xmlns:sodipodi="http://sodipodi.sourceforge.net/DTD/sodipodi-0.dtd"
   xmlns="http://www.w3.org/2000/svg"
   xmlns:svg="http://www.w3.org/2000/svg">
  <sodipodi:namedview
     id="namedview62"
     pagecolor="#505050"
     bordercolor="#eeeeee"
     borderopacity="1"
     inkscape:showpageshadow="0"
     inkscape:pageopacity="0"
     inkscape:pagecheckerboard="0"
     inkscape:deskcolor="#505050"
     showgrid="false"
     inkscape:zoom="2.1990133"
     inkscape:cx="643.97306"
     inkscape:cy="69.12191"
     inkscape:window-width="1920"
     inkscape:window-height="1017"
     inkscape:window-x="1912"
     inkscape:window-y="-8"
     inkscape:window-maximized="1"
     inkscape:current-layer="图层_1" />
  <defs
     id="defs35">
    <style
       id="style33">.cls-1{font-size:76.13px;}.cls-1,.cls-3,.cls-5{fill:#fff;}.cls-1,.cls-3{font-family:MicrosoftYaHei-Bold, Microsoft YaHei;font-weight:700;}.cls-2{letter-spacing:0em;}.cls-3{font-size:24.83px;}.cls-4{letter-spacing:0em;}</style>
  </defs>
  <text
     class="cls-1"
     transform="translate(100,110) scale(0.7)"
     id="text41"
  >Sma
    <tspan class="cls-2" x="164.53" y="0" id="tspan37">r</tspan>
    <tspan x="196.42" y="0" id="tspan39">Stor StorageManager</tspan>
  </text>
<!--  <text-->
<!--     class="cls-3"-->
<!--     transform="translate(100.56,130.82)"-->
<!--     id="text47">NAS</text>-->
  <path
     class="cls-5"
     d="M15,75.6A2.94,2.94,0,1,1,12,72.67,2.93,2.93,0,0,1,15,75.6Z"
     id="path49" />
  <path
     class="cls-5"
     d="M24.31,97.12a2.93,2.93,0,1,1-2.93-2.93A2.93,2.93,0,0,1,24.31,97.12Z"
     id="path51" />
  <path
     class="cls-5"
     d="M62.37,97.12a2.93,2.93,0,1,1-2.93-2.93A2.93,2.93,0,0,1,62.37,97.12Z"
     id="path53" />
  <path
     class="cls-5"
     d="M72.68,75.6a2.94,2.94,0,1,1-2.94-2.93A2.94,2.94,0,0,1,72.68,75.6Z"
     id="path55" />
  <path
     class="cls-5"
     d="M15.22,97.12a6.06,6.06,0,0,1,.35-2L0,87.75v22.32l8.35,6V101L12,102.72V131.1l8.35,6V103.18A6.14,6.14,0,0,1,15.22,97.12ZM25.76,50.18V66.8l9.84,5.45a6.12,6.12,0,0,1,9.88-.3L55.56,66.8V50.18L68,39.41l-9.21-2.57L47.27,46.33V62.09L40.21,65.7l-6.15-3.61V46.33L22.58,36.84l-9.21,2.57ZM73,70.37a6.15,6.15,0,0,1-6.29,10.56L49.09,89.8v26.81l-8.19,6-8.67-6V89.8L14.88,81a6.05,6.05,0,0,1-2.84.73A6.15,6.15,0,0,1,8.35,70.69V60L0,52.81V82.88L18,92a6.09,6.09,0,0,1,3.37-1,6.16,6.16,0,0,1,2.5,11.79V120.9l16.78,12,16.78-12v-18A6.15,6.15,0,1,1,63,92.13l18.31-9.25V52.81L73,60ZM65.6,97.12A6.15,6.15,0,0,1,61,103.07v34l8.35-6V102.72L73,101V116l8.36-6V87.75l-16,7.63A5.92,5.92,0,0,1,65.6,97.12ZM66,.65,61.93,11.27,73,27.54V41.72L59.41,53.85V70L46.73,76.7a6.14,6.14,0,0,1-12.14,0L21.91,70V53.85L8.35,41.72V27.54l11-16.27L15.35.65,0,25.59V45.21L13.57,57.34V69.65A6.16,6.16,0,0,1,18.2,75.6a6.37,6.37,0,0,1-.26,1.71l22.65,12L63.78,77.09a6,6,0,0,1-.2-1.49,6.15,6.15,0,0,1,4.18-5.8V57.34L81.33,45.21V25.59Z"
     id="path57" />
  <path
     class="cls-5"
     d="M43.59,75.75a2.93,2.93,0,1,1-2.93-2.93A2.93,2.93,0,0,1,43.59,75.75Z"
     id="path59" />
</svg>
